<?xml version="1.0" encoding="UTF-8" standalone="no"?>
<svg
   xmlns:fpd="http://www.schaeffer-ag.de"
   xmlns:dc="http://purl.org/dc/elements/1.1/"
   xmlns:cc="http://creativecommons.org/ns#"
   xmlns:rdf="http://www.w3.org/1999/02/22-rdf-syntax-ns#"
   xmlns:svg="http://www.w3.org/2000/svg"
   xmlns="http://www.w3.org/2000/svg"
   xmlns:sodipodi="http://sodipodi.sourceforge.net/DTD/sodipodi-0.dtd"
   xmlns:inkscape="http://www.inkscape.org/namespaces/inkscape"
   width="210mm"
   height="297mm"
   version="1.1"
   viewBox="0 0 210 297.00001"
   id="svg3007"
   sodipodi:docname="gate_sequencer_silkscreen.svg"
   inkscape:version="0.92.3 (2405546, 2018-03-11)">
  <metadata
     id="metadata3011">
    <rdf:RDF>
      <cc:Work
         rdf:about="">
        <dc:format>image/svg+xml</dc:format>
        <dc:type
           rdf:resource="http://purl.org/dc/dcmitype/StillImage" />
        <dc:title></dc:title>
      </cc:Work>
    </rdf:RDF>
  </metadata>
  <sodipodi:namedview
     pagecolor="#ffffff"
     bordercolor="#666666"
     borderopacity="1"
     objecttolerance="10"
     gridtolerance="10"
     guidetolerance="10"
     inkscape:pageopacity="0"
     inkscape:pageshadow="2"
     inkscape:window-width="1920"
     inkscape:window-height="1057"
     id="namedview3009"
     showgrid="false"
     units="mm"
     inkscape:zoom="11.003845"
     inkscape:cx="88.433314"
     inkscape:cy="586.53282"
     inkscape:window-x="1912"
     inkscape:window-y="1432"
     inkscape:window-maximized="1"
     inkscape:current-layer="svg3007" />
  <desc
     id="desc2787">Diese Zeichnung wurde mit dem Frontplatten Desinger durch den Export der Datei 'gate_sequencer.fpd' erzeugt.</desc>
  <defs
     id="defs2799">
    <pattern
       id="revside-fill"
       x="1"
       y="1"
       width="1.5"
       height="1.5"
       patternUnits="userSpaceOnUse">
      <line
         x1="0"
         y1="0"
         x2="1"
         y2="1"
         style="stroke-width:0.2; stroke:black; stroke-dasharray:none;"
         id="line2789" />
      <line
         x1="0"
         y1="1"
         x2="1"
         y2="0"
         style="stroke-width:0.2; stroke:black; stroke-dasharray:none;"
         id="line2791" />
    </pattern>
    <pattern
       id="revside-fill-silver"
       x="1"
       y="1"
       width="1.5"
       height="1.5"
       patternUnits="userSpaceOnUse">
      <line
         x1="0"
         y1="0"
         x2="1.5"
         y2="1.5"
         style="stroke-width:0.2; stroke:#e0e0e0; stroke-dasharray:none;"
         id="line2794" />
      <line
         x1="0"
         y1="1.5"
         x2="1.5"
         y2="0"
         style="stroke-width:0.2; stroke:#e0e0e0; stroke-dasharray:none;"
         id="line2796" />
    </pattern>
  </defs>
  <text
     xml:space="preserve"
     style="font-style:normal;font-variant:normal;font-weight:normal;font-stretch:normal;font-size:3.52777815px;line-height:1.25;font-family:WarHeliosCondCBold;-inkscape-font-specification:WarHeliosCondCBold;text-align:center;letter-spacing:0px;word-spacing:0px;text-anchor:middle;fill:#000000;fill-opacity:1;stroke:none;stroke-width:0.26458332"
     x="43.075405"
     y="124.63792"
     id="text914-9-00-7-8"><tspan
       sodipodi:role="line"
       id="tspan912-0-1-0-0"
       x="43.075405"
       y="124.63792"
       style="font-style:normal;font-variant:normal;font-weight:normal;font-stretch:normal;font-size:2.82222247px;font-family:WarHeliosCondCBold;-inkscape-font-specification:WarHeliosCondCBold;text-align:center;text-anchor:middle;stroke-width:0.26458332">out</tspan></text>
  <text
     xml:space="preserve"
     style="font-style:normal;font-variant:normal;font-weight:normal;font-stretch:normal;font-size:3.52777815px;line-height:1.25;font-family:WarHeliosCondCBold;-inkscape-font-specification:WarHeliosCondCBold;text-align:center;letter-spacing:0px;word-spacing:0px;text-anchor:middle;fill:#000000;fill-opacity:1;stroke:none;stroke-width:0.26458332"
     x="42.132629"
     y="104.14716"
     id="text914-9-00-7"><tspan
       sodipodi:role="line"
       id="tspan912-0-1-0"
       x="42.132629"
       y="104.14716"
       style="font-style:normal;font-variant:normal;font-weight:normal;font-stretch:normal;font-size:2.82222247px;font-family:WarHeliosCondCBold;-inkscape-font-specification:WarHeliosCondCBold;text-align:center;text-anchor:middle;stroke-width:0.26458332">halt / run</tspan></text>
  <text
     xml:space="preserve"
     style="font-style:normal;font-variant:normal;font-weight:normal;font-stretch:normal;font-size:3.52777815px;line-height:1.25;font-family:WarHeliosCondCBold;-inkscape-font-specification:WarHeliosCondCBold;text-align:center;letter-spacing:0px;word-spacing:0px;text-anchor:middle;fill:#000000;fill-opacity:1;stroke:none;stroke-width:0.26458332"
     x="42.852249"
     y="70.297539"
     id="text914-9-00-7-83"><tspan
       sodipodi:role="line"
       id="tspan912-0-1-0-2"
       x="42.852249"
       y="70.297539"
       style="font-style:normal;font-variant:normal;font-weight:normal;font-stretch:normal;font-size:2.82222247px;font-family:WarHeliosCondCBold;-inkscape-font-specification:WarHeliosCondCBold;text-align:center;text-anchor:middle;stroke-width:0.26458332">reset</tspan></text>
  <path
     style="vector-effect:non-scaling-stroke;fill:none;fill-rule:evenodd;stroke:#000000;stroke-width:0.26500002;stroke-linecap:round;stroke-linejoin:round;stroke-miterlimit:4;stroke-dasharray:none;stroke-opacity:1"
     inkscape:connector-curvature="0"
     id="path2059-6"
     fpd:engraving_ral_9005="1"
     d="m 37.579652,48.687161 a 2.0000001,2.0000001 0 0 0 2,2 h 7.000002 a 2.0000001,2.0000001 0 0 0 2,-2 v -7 a 2.0000001,2.0000001 0 0 0 -2,-2 h -7.000002 a 2.0000001,2.0000001 0 0 0 -2,2 v 7" />
  <text
     id="text914-8"
     y="138.14464"
     x="34.629105"
     style="font-style:normal;font-variant:normal;font-weight:normal;font-stretch:normal;font-size:6.35000086px;line-height:1.25;font-family:WarHeliosCondCBold;-inkscape-font-specification:WarHeliosCondCBold;text-align:center;letter-spacing:0px;word-spacing:0px;text-anchor:middle;fill:#000000;fill-opacity:1;stroke:#000000;stroke-width:0.13229166;stroke-miterlimit:4;stroke-dasharray:none;stroke-opacity:1"
     xml:space="preserve"><tspan
       style="font-style:normal;font-variant:normal;font-weight:normal;font-stretch:normal;font-size:6.35000086px;font-family:WarHeliosCondCBold;-inkscape-font-specification:WarHeliosCondCBold;text-align:center;text-anchor:middle;fill:#000000;fill-opacity:1;stroke:#000000;stroke-width:0.13229166;stroke-miterlimit:4;stroke-dasharray:none;stroke-opacity:1"
       y="138.14464"
       x="34.629105"
       id="tspan912-7"
       sodipodi:role="line">Seq.</tspan></text>
  <text
     id="text914"
     y="26.230997"
     x="34.731422"
     style="font-style:normal;font-variant:normal;font-weight:normal;font-stretch:normal;font-size:4.23333311px;line-height:1;font-family:WarHeliosCondCBold;-inkscape-font-specification:WarHeliosCondCBold;text-align:center;letter-spacing:0px;word-spacing:0px;text-anchor:middle;fill:none;fill-opacity:1;stroke:#000000;stroke-width:0.13229166;stroke-miterlimit:4;stroke-dasharray:none;stroke-opacity:1"
     xml:space="preserve"><tspan
       style="font-style:normal;font-variant:normal;font-weight:normal;font-stretch:normal;font-size:4.93888903px;line-height:1;font-family:WarHeliosCondCBold;-inkscape-font-specification:WarHeliosCondCBold;text-align:center;text-anchor:middle;fill:none;stroke:#000000;stroke-width:0.13229166;stroke-miterlimit:4;stroke-dasharray:none;stroke-opacity:1"
       y="26.230997"
       x="34.731422"
       id="tspan912"
       sodipodi:role="line">Anoikis</tspan><tspan
       style="font-style:normal;font-variant:normal;font-weight:normal;font-stretch:normal;font-size:4.93888903px;line-height:1;font-family:WarHeliosCondCBold;-inkscape-font-specification:WarHeliosCondCBold;text-align:center;text-anchor:middle;fill:none;stroke:#000000;stroke-width:0.13229166;stroke-miterlimit:4;stroke-dasharray:none;stroke-opacity:1"
       y="31.169886"
       x="34.731422"
       sodipodi:role="line"
       id="tspan6540">Nomads</tspan></text>
  <path
     style="vector-effect:non-scaling-stroke;fill:none;fill-rule:evenodd;stroke:#000000;stroke-width:0.26500002;stroke-linecap:round;stroke-linejoin:round;stroke-miterlimit:4;stroke-dasharray:none;stroke-opacity:1"
     inkscape:connector-curvature="0"
     id="path2059-6-3"
     fpd:engraving_ral_9005="1"
     d="m 37.541817,63.903361 a 2.0000001,2.0000001 0 0 0 2,2 h 7.000003 a 2.0000001,2.0000001 0 0 0 1.999999,-2 v -7 a 2.0000001,2.0000001 0 0 0 -1.999999,-2 h -7.000003 a 2.0000001,2.0000001 0 0 0 -2,2 v 7" />
  <path
     style="vector-effect:non-scaling-stroke;fill:#000000;fill-opacity:1;fill-rule:evenodd;stroke:#000000;stroke-width:0.26458335;stroke-linecap:round;stroke-linejoin:round;stroke-miterlimit:4;stroke-dasharray:none;stroke-opacity:1"
     inkscape:connector-curvature="0"
     id="path2059-8"
     fpd:engraving_ral_9005="1"
     d="m 37.564362,119.74337 a 2.0000001,2.0000001 0 0 0 2.000001,2 h 7.000002 a 2.0000001,2.0000001 0 0 0 1.999999,-2 v -7 a 2.0000001,2.0000001 0 0 0 -1.999999,-2 h -7.000002 a 2.0000001,2.0000001 0 0 0 -2.000001,2 v 7" />
  <path
     style="vector-effect:non-scaling-stroke;fill:#ffffff;fill-rule:evenodd;stroke:#000000;stroke-width:0.1000125;stroke-linecap:round;stroke-linejoin:round;stroke-miterlimit:4;stroke-dasharray:none;stroke-opacity:1"
     inkscape:connector-curvature="0"
     id="path2889"
     d="m 25.48644,19.261031 a 1.6,1.6 0 1 1 3.2,0 1.6,1.6 0 1 1 -3.2,0" />
  <path
     style="vector-effect:non-scaling-stroke;fill:#ffffff;fill-rule:evenodd;stroke:#000000;stroke-width:0.1000125;stroke-linecap:round;stroke-linejoin:round;stroke-miterlimit:4;stroke-dasharray:none;stroke-opacity:1"
     inkscape:connector-curvature="0"
     id="path2891"
     d="m 40.62644,141.66103 a 1.6,1.6 0 1 1 3.2,0 1.6,1.6 0 1 1 -3.2,0" />
  <path
     style="vector-effect:non-scaling-stroke;fill:#ffffff;fill-rule:evenodd;stroke:#000000;stroke-width:0.1000125;stroke-linecap:round;stroke-linejoin:round;stroke-miterlimit:4;stroke-dasharray:none;stroke-opacity:1"
     inkscape:connector-curvature="0"
     id="path2893"
     d="m 21.83244,45.041031 a 2.75,2.75 0 1 1 5.5,0 2.75,2.75 0 1 1 -5.5,0" />
  <path
     style="vector-effect:non-scaling-stroke;fill:#ffffff;fill-rule:evenodd;stroke:#000000;stroke-width:0.1000125;stroke-linecap:round;stroke-linejoin:round;stroke-miterlimit:4;stroke-dasharray:none;stroke-opacity:1"
     inkscape:connector-curvature="0"
     id="path2895"
     d="m 28.33244,45.041031 a 1.5,1.5 0 1 1 3,0 1.5,1.5 0 1 1 -3,0" />
  <path
     style="vector-effect:non-scaling-stroke;fill:#ffffff;fill-rule:evenodd;stroke:#000000;stroke-width:0.1000125;stroke-linecap:round;stroke-linejoin:round;stroke-miterlimit:4;stroke-dasharray:none;stroke-opacity:1"
     inkscape:connector-curvature="0"
     id="path2897"
     d="m 21.83244,55.201031 a 2.75,2.75 0 1 1 5.5,0 2.75,2.75 0 1 1 -5.5,0" />
  <path
     style="vector-effect:non-scaling-stroke;fill:#ffffff;fill-rule:evenodd;stroke:#000000;stroke-width:0.1000125;stroke-linecap:round;stroke-linejoin:round;stroke-miterlimit:4;stroke-dasharray:none;stroke-opacity:1"
     inkscape:connector-curvature="0"
     id="path2899"
     d="m 28.33244,55.201031 a 1.5,1.5 0 1 1 3,0 1.5,1.5 0 1 1 -3,0" />
  <path
     style="vector-effect:non-scaling-stroke;fill:#ffffff;fill-rule:evenodd;stroke:#000000;stroke-width:0.1000125;stroke-linecap:round;stroke-linejoin:round;stroke-miterlimit:4;stroke-dasharray:none;stroke-opacity:1"
     inkscape:connector-curvature="0"
     id="path2901"
     d="m 21.83244,65.361031 a 2.75,2.75 0 1 1 5.5,0 2.75,2.75 0 1 1 -5.5,0" />
  <path
     style="vector-effect:non-scaling-stroke;fill:#ffffff;fill-rule:evenodd;stroke:#000000;stroke-width:0.1000125;stroke-linecap:round;stroke-linejoin:round;stroke-miterlimit:4;stroke-dasharray:none;stroke-opacity:1"
     inkscape:connector-curvature="0"
     id="path2903"
     d="m 28.33244,65.361031 a 1.5,1.5 0 1 1 3,0 1.5,1.5 0 1 1 -3,0" />
  <path
     style="vector-effect:non-scaling-stroke;fill:#ffffff;fill-rule:evenodd;stroke:#000000;stroke-width:0.1000125;stroke-linecap:round;stroke-linejoin:round;stroke-miterlimit:4;stroke-dasharray:none;stroke-opacity:1"
     inkscape:connector-curvature="0"
     id="path2905"
     d="m 21.83244,75.521031 a 2.75,2.75 0 1 1 5.5,0 2.75,2.75 0 1 1 -5.5,0" />
  <path
     style="vector-effect:non-scaling-stroke;fill:#ffffff;fill-rule:evenodd;stroke:#000000;stroke-width:0.1000125;stroke-linecap:round;stroke-linejoin:round;stroke-miterlimit:4;stroke-dasharray:none;stroke-opacity:1"
     inkscape:connector-curvature="0"
     id="path2907"
     d="m 28.33244,75.521031 a 1.5,1.5 0 1 1 3,0 1.5,1.5 0 1 1 -3,0" />
  <path
     style="vector-effect:non-scaling-stroke;fill:#ffffff;fill-rule:evenodd;stroke:#000000;stroke-width:0.1000125;stroke-linecap:round;stroke-linejoin:round;stroke-miterlimit:4;stroke-dasharray:none;stroke-opacity:1"
     inkscape:connector-curvature="0"
     id="path2909"
     d="m 21.83244,85.681031 a 2.75,2.75 0 1 1 5.5,0 2.75,2.75 0 1 1 -5.5,0" />
  <path
     style="vector-effect:non-scaling-stroke;fill:#ffffff;fill-rule:evenodd;stroke:#000000;stroke-width:0.1000125;stroke-linecap:round;stroke-linejoin:round;stroke-miterlimit:4;stroke-dasharray:none;stroke-opacity:1"
     inkscape:connector-curvature="0"
     id="path2911"
     d="m 28.33244,85.681031 a 1.5,1.5 0 1 1 3,0 1.5,1.5 0 1 1 -3,0" />
  <path
     style="vector-effect:non-scaling-stroke;fill:#ffffff;fill-rule:evenodd;stroke:#000000;stroke-width:0.1000125;stroke-linecap:round;stroke-linejoin:round;stroke-miterlimit:4;stroke-dasharray:none;stroke-opacity:1"
     inkscape:connector-curvature="0"
     id="path2913"
     d="m 21.71644,95.957031 a 2.75,2.75 0 1 1 5.5,0 2.75,2.75 0 1 1 -5.5,0" />
  <path
     style="vector-effect:non-scaling-stroke;fill:#ffffff;fill-rule:evenodd;stroke:#000000;stroke-width:0.1000125;stroke-linecap:round;stroke-linejoin:round;stroke-miterlimit:4;stroke-dasharray:none;stroke-opacity:1"
     inkscape:connector-curvature="0"
     id="path2915"
     d="m 28.21644,95.957031 a 1.5,1.5 0 1 1 3,0 1.5,1.5 0 1 1 -3,0" />
  <path
     style="vector-effect:non-scaling-stroke;fill:#ffffff;fill-rule:evenodd;stroke:#000000;stroke-width:0.1000125;stroke-linecap:round;stroke-linejoin:round;stroke-miterlimit:4;stroke-dasharray:none;stroke-opacity:1"
     inkscape:connector-curvature="0"
     id="path2917"
     d="m 21.83244,106.00103 a 2.75,2.75 0 1 1 5.5,0 2.75,2.75 0 1 1 -5.5,0" />
  <path
     style="vector-effect:non-scaling-stroke;fill:#ffffff;fill-rule:evenodd;stroke:#000000;stroke-width:0.1000125;stroke-linecap:round;stroke-linejoin:round;stroke-miterlimit:4;stroke-dasharray:none;stroke-opacity:1"
     inkscape:connector-curvature="0"
     id="path2919"
     d="m 28.33244,106.00103 a 1.5,1.5 0 1 1 3,0 1.5,1.5 0 1 1 -3,0" />
  <path
     style="vector-effect:non-scaling-stroke;fill:#ffffff;fill-rule:evenodd;stroke:#000000;stroke-width:0.1000125;stroke-linecap:round;stroke-linejoin:round;stroke-miterlimit:4;stroke-dasharray:none;stroke-opacity:1"
     inkscape:connector-curvature="0"
     id="path2921"
     d="m 21.83244,116.16103 a 2.75,2.75 0 1 1 5.5,0 2.75,2.75 0 1 1 -5.5,0" />
  <path
     style="vector-effect:non-scaling-stroke;fill:#ffffff;fill-rule:evenodd;stroke:#000000;stroke-width:0.1000125;stroke-linecap:round;stroke-linejoin:round;stroke-miterlimit:4;stroke-dasharray:none;stroke-opacity:1"
     inkscape:connector-curvature="0"
     id="path2923"
     d="m 28.33244,116.16103 a 1.5,1.5 0 1 1 3,0 1.5,1.5 0 1 1 -3,0" />
  <path
     style="vector-effect:non-scaling-stroke;fill:#ffffff;fill-rule:evenodd;stroke:#000000;stroke-width:0.1000125;stroke-linecap:round;stroke-linejoin:round;stroke-miterlimit:4;stroke-dasharray:none;stroke-opacity:1"
     inkscape:connector-curvature="0"
     id="path2925"
     d="m 37.33544,78.061031 a 5,5 0 1 1 10,0 5,5 0 1 1 -10,0" />
  <path
     style="vector-effect:non-scaling-stroke;fill:#ffffff;fill-rule:evenodd;stroke:#000000;stroke-width:0.1000125;stroke-linecap:round;stroke-linejoin:round;stroke-miterlimit:4;stroke-dasharray:none;stroke-opacity:1"
     inkscape:connector-curvature="0"
     id="path2927"
     d="m 39.83544,45.041031 a 3.25,3.25 0 1 1 6.5,0 3.25,3.25 0 1 1 -6.5,0" />
  <path
     style="vector-effect:non-scaling-stroke;fill:#ffffff;fill-rule:evenodd;stroke:#000000;stroke-width:0.1000125;stroke-linecap:round;stroke-linejoin:round;stroke-miterlimit:4;stroke-dasharray:none;stroke-opacity:1"
     inkscape:connector-curvature="0"
     id="path2929"
     d="m 39.83544,60.281031 a 3.25,3.25 0 1 1 6.5,0 3.25,3.25 0 1 1 -6.5,0" />
  <path
     style="vector-effect:non-scaling-stroke;fill:#ffffff;fill-rule:evenodd;stroke:#000000;stroke-width:0.1000125;stroke-linecap:round;stroke-linejoin:round;stroke-miterlimit:4;stroke-dasharray:none;stroke-opacity:1"
     inkscape:connector-curvature="0"
     id="path2931"
     d="m 39.33544,98.381031 a 2.75,2.75 0 1 1 5.5,0 2.75,2.75 0 1 1 -5.5,0" />
  <path
     style="vector-effect:non-scaling-stroke;fill:#ffffff;fill-rule:evenodd;stroke:#000000;stroke-width:0.1000125;stroke-linecap:round;stroke-linejoin:round;stroke-miterlimit:4;stroke-dasharray:none;stroke-opacity:1"
     inkscape:connector-curvature="0"
     id="path2933"
     d="m 39.83544,116.15703 a 3.25,3.25 0 1 1 6.5,0 3.25,3.25 0 1 1 -6.5,0" />
  <path
     style="vector-effect:non-scaling-stroke;fill:#ffffff;fill-rule:evenodd;stroke:#000000;stroke-width:0.1000125;stroke-linecap:round;stroke-linejoin:round;stroke-miterlimit:4;stroke-dasharray:none;stroke-opacity:1"
     inkscape:connector-curvature="0"
     id="path2935"
     d="m 39.83544,110.41603 a 1.5,1.5 0 1 1 3,0 1.5,1.5 0 1 1 -3,0" />
  <path
     style="vector-effect:non-scaling-stroke;fill:none;fill-rule:evenodd;stroke:#000000;stroke-width:0.1000125;stroke-linecap:round;stroke-linejoin:round;stroke-opacity:1;stroke-miterlimit:4;stroke-dasharray:none"
     inkscape:connector-curvature="0"
     id="path2937"
     d="M 49.72644,16.261031 V 144.66103 h -30.14 V 16.261031 h 30.14" />
  <text
     xml:space="preserve"
     style="font-style:normal;font-variant:normal;font-weight:normal;font-stretch:normal;font-size:3.52777815px;line-height:1.25;font-family:WarHeliosCondCBold;-inkscape-font-specification:WarHeliosCondCBold;text-align:center;letter-spacing:0px;word-spacing:0px;text-anchor:middle;fill:#000000;fill-opacity:1;stroke:none;stroke-width:0.26458332"
     x="42.94109"
     y="53.025814"
     id="text914-9-00-7-3"><tspan
       sodipodi:role="line"
       id="tspan912-0-1-0-5"
       x="42.94109"
       y="53.025814"
       style="font-style:normal;font-variant:normal;font-weight:normal;font-stretch:normal;font-size:2.82222247px;font-family:WarHeliosCondCBold;-inkscape-font-specification:WarHeliosCondCBold;text-align:center;text-anchor:middle;stroke-width:0.26458332">clock</tspan></text>
</svg>
