  0
SECTION
  2
HEADER
  9
$MEASUREMENT
  70
  1
  9
$INSUNITS
  70
  4
  0
ENDSEC
  0
SECTION
  2
TABLES
  0
TABLE
  2
LTYPE
 70
     1
  0
LTYPE
  2
CONTINUOUS
 70
    64
  3
Ausgezogene Linie
 72
    65
 73
     0
 40
0.0
  0
ENDTAB
  0
TABLE
  2
LAYER
 70
     3
  0
LAYER
  2
Kontur
 70
    64
 62
     7
  6
CONTINUOUS
  0
LAYER
  2
Gravur
 70
    64
 62
     7
  6
CONTINUOUS
  0
LAYER
  2
Bezugspunkte
 70
    64
 62
     1
  6
CONTINUOUS
  0
ENDTAB
  0
TABLE
  2
STYLE
 70
     1
  0
STYLE
  2
TXT
 70
    64
 40
0.0
 41
1.0
 50
0.0
 71
     0
 42
3.500000
  3
TXT
  0
ENDTAB
  0
ENDSEC
  0
SECTION
  2
BLOCKS
  0
ENDSEC
  0
SECTION
  2
ENTITIES
  0
LINE
  8
Kontur
 62
   7
 39
0.100
  6
CONTINUOUS
 10
30.14000
 20
128.40000
 30
 0
 11
30.14000
 21
0.00000
  0
LINE
  8
Kontur
 62
   7
 39
0.100
  6
CONTINUOUS
 10
30.14000
 20
0.00000
 30
 0
 11
0.00000
 21
0.00000
  0
LINE
  8
Kontur
 62
   7
 39
0.100
  6
CONTINUOUS
 10
0.00000
 20
0.00000
 30
 0
 11
0.00000
 21
128.40000
  0
LINE
  8
Kontur
 62
   7
 39
0.100
  6
CONTINUOUS
 10
0.00000
 20
128.40000
 30
 0
 11
30.14000
 21
128.40000
  0
ARC
  8
Kontur
 62
   7
 39
0.100
  6
CONTINUOUS
 10
0.35355
 20
122.74855
 30
 0
 40
0.50000
 50
135.00000
 51
315.00000
  0
LINE
  8
Kontur
 62
   7
 39
0.100
  6
CONTINUOUS
 10
0.70711
 20
122.39500
 30
 0
 11
29.43289
 21
122.39500
  0
ARC
  8
Kontur
 62
   7
 39
0.100
  6
CONTINUOUS
 10
29.78645
 20
122.74855
 30
 0
 40
0.50000
 50
225.00000
 51
405.00000
  0
LINE
  8
Kontur
 62
   7
 39
0.100
  6
CONTINUOUS
 10
30.14000
 20
123.10211
 30
 0
 11
30.14000
 21
127.68789
  0
ARC
  8
Kontur
 62
   7
 39
0.100
  6
CONTINUOUS
 10
29.78645
 20
128.04145
 30
 0
 40
0.50000
 50
315.00000
 51
495.00000
  0
LINE
  8
Kontur
 62
   7
 39
0.100
  6
CONTINUOUS
 10
29.43289
 20
128.39500
 30
 0
 11
0.70711
 21
128.39500
  0
ARC
  8
Kontur
 62
   7
 39
0.100
  6
CONTINUOUS
 10
0.35355
 20
128.04145
 30
 0
 40
0.50000
 50
45.00000
 51
225.00000
  0
LINE
  8
Kontur
 62
   7
 39
0.100
  6
CONTINUOUS
 10
0.00000
 20
127.68789
 30
 0
 11
0.00000
 21
123.10211
  0
ARC
  8
Kontur
 62
   7
 39
0.100
  6
CONTINUOUS
 10
0.35355
 20
0.35355
 30
 0
 40
0.50000
 50
135.00000
 51
315.00000
  0
LINE
  8
Kontur
 62
   7
 39
0.100
  6
CONTINUOUS
 10
0.70711
 20
0.00000
 30
 0
 11
29.43289
 21
0.00000
  0
ARC
  8
Kontur
 62
   7
 39
0.100
  6
CONTINUOUS
 10
29.78645
 20
0.35355
 30
 0
 40
0.50000
 50
225.00000
 51
405.00000
  0
LINE
  8
Kontur
 62
   7
 39
0.100
  6
CONTINUOUS
 10
30.14000
 20
0.70711
 30
 0
 11
30.14000
 21
5.29289
  0
ARC
  8
Kontur
 62
   7
 39
0.100
  6
CONTINUOUS
 10
29.78645
 20
5.64645
 30
 0
 40
0.50000
 50
315.00000
 51
495.00000
  0
LINE
  8
Kontur
 62
   7
 39
0.100
  6
CONTINUOUS
 10
29.43289
 20
6.00000
 30
 0
 11
0.70711
 21
6.00000
  0
ARC
  8
Kontur
 62
   7
 39
0.100
  6
CONTINUOUS
 10
0.35355
 20
5.64645
 30
 0
 40
0.50000
 50
45.00000
 51
225.00000
  0
LINE
  8
Kontur
 62
   7
 39
0.100
  6
CONTINUOUS
 10
0.00000
 20
5.29289
 30
 0
 11
0.00000
 21
0.70711
  0
LINE
  8
Gravur
 62
   255
 39
0.400
  6
CONTINUOUS
 10
7.63433
 20
119.65333
 30
 0
 11
9.55100
 21
119.65333
  0
LINE
  8
Gravur
 62
   255
 39
0.400
  6
CONTINUOUS
 10
7.25100
 20
118.69500
 30
 0
 11
8.59267
 21
122.14500
  0
LINE
  8
Gravur
 62
   255
 39
0.400
  6
CONTINUOUS
 10
8.59267
 20
122.14500
 30
 0
 11
9.93433
 21
118.69500
  0
LINE
  8
Gravur
 62
   255
 39
0.400
  6
CONTINUOUS
 10
10.85500
 20
118.69500
 30
 0
 11
10.85500
 21
120.99500
  0
LINE
  8
Gravur
 62
   255
 39
0.400
  6
CONTINUOUS
 10
10.85500
 20
120.99500
 30
 0
 11
10.85500
 21
120.03667
  0
ARC
  8
Gravur
 62
   255
 39
0.400
  6
CONTINUOUS
 10
11.81333
 20
120.03667
 30
 0
 40
0.95833
 50
0.00000
 51
180.00000
  0
LINE
  8
Gravur
 62
   255
 39
0.400
  6
CONTINUOUS
 10
12.77167
 20
120.03667
 30
 0
 11
12.77167
 21
118.69500
  0
LINE
  8
Gravur
 62
   255
 39
0.400
  6
CONTINUOUS
 10
13.69200
 20
119.65233
 30
 0
 11
13.69200
 21
120.03567
  0
ARC
  8
Gravur
 62
   255
 39
0.400
  6
CONTINUOUS
 10
14.65033
 20
120.03567
 30
 0
 40
0.95833
 50
0.00000
 51
180.00000
  0
LINE
  8
Gravur
 62
   255
 39
0.400
  6
CONTINUOUS
 10
15.60867
 20
120.03567
 30
 0
 11
15.60867
 21
119.65233
  0
ARC
  8
Gravur
 62
   255
 39
0.400
  6
CONTINUOUS
 10
14.65033
 20
119.65233
 30
 0
 40
0.95833
 50
-180.00000
 51
0.00000
  0
LINE
  8
Gravur
 62
   255
 39
0.400
  6
CONTINUOUS
 10
16.52800
 20
122.14400
 30
 0
 11
16.52800
 21
121.95233
  0
LINE
  8
Gravur
 62
   255
 39
0.400
  6
CONTINUOUS
 10
16.52800
 20
120.99400
 30
 0
 11
16.52800
 21
118.69400
  0
LINE
  8
Gravur
 62
   255
 39
0.400
  6
CONTINUOUS
 10
17.44800
 20
122.14400
 30
 0
 11
17.44800
 21
118.69400
  0
LINE
  8
Gravur
 62
   255
 39
0.400
  6
CONTINUOUS
 10
17.44800
 20
118.69400
 30
 0
 11
17.44800
 21
119.46067
  0
LINE
  8
Gravur
 62
   255
 39
0.400
  6
CONTINUOUS
 10
17.44800
 20
119.46067
 30
 0
 11
19.36467
 21
120.99400
  0
LINE
  8
Gravur
 62
   255
 39
0.400
  6
CONTINUOUS
 10
19.36467
 20
120.99400
 30
 0
 11
18.21467
 21
120.07400
  0
LINE
  8
Gravur
 62
   255
 39
0.400
  6
CONTINUOUS
 10
18.21467
 20
120.07400
 30
 0
 11
19.36467
 21
118.69400
  0
LINE
  8
Gravur
 62
   255
 39
0.400
  6
CONTINUOUS
 10
20.28400
 20
122.14400
 30
 0
 11
20.28400
 21
121.95233
  0
LINE
  8
Gravur
 62
   255
 39
0.400
  6
CONTINUOUS
 10
20.28400
 20
120.99400
 30
 0
 11
20.28400
 21
118.69400
  0
ARC
  8
Gravur
 62
   255
 39
0.400
  6
CONTINUOUS
 10
22.07461
 20
119.96934
 30
 0
 40
1.30242
 50
228.05192
 51
293.02344
  0
ARC
  8
Gravur
 62
   255
 39
0.400
  6
CONTINUOUS
 10
22.39227
 20
119.22348
 30
 0
 40
0.49173
 50
292.94873
 51
431.82316
  0
LINE
  8
Gravur
 62
   255
 39
0.400
  6
CONTINUOUS
 10
22.54567
 20
119.69067
 30
 0
 11
21.51067
 21
120.03567
  0
ARC
  8
Gravur
 62
   255
 39
0.400
  6
CONTINUOUS
 10
21.64874
 20
120.45497
 30
 0
 40
0.44145
 50
119.10762
 51
251.77304
  0
ARC
  8
Gravur
 62
   255
 39
0.400
  6
CONTINUOUS
 10
22.10213
 20
119.65845
 30
 0
 40
1.35795
 50
54.50145
 51
119.47297
  0
LINE
  8
Gravur
 62
   255
 39
0.400
  6
CONTINUOUS
 10
6.10000
 20
112.09500
 30
 0
 11
6.10000
 21
115.54500
  0
LINE
  8
Gravur
 62
   255
 39
0.400
  6
CONTINUOUS
 10
6.10000
 20
115.54500
 30
 0
 11
8.40000
 21
112.09500
  0
LINE
  8
Gravur
 62
   255
 39
0.400
  6
CONTINUOUS
 10
8.40000
 20
112.09500
 30
 0
 11
8.40000
 21
115.54500
  0
LINE
  8
Gravur
 62
   255
 39
0.400
  6
CONTINUOUS
 10
9.32000
 20
113.05333
 30
 0
 11
9.32000
 21
113.43667
  0
ARC
  8
Gravur
 62
   255
 39
0.400
  6
CONTINUOUS
 10
10.27833
 20
113.43667
 30
 0
 40
0.95833
 50
0.00000
 51
180.00000
  0
LINE
  8
Gravur
 62
   255
 39
0.400
  6
CONTINUOUS
 10
11.23667
 20
113.43667
 30
 0
 11
11.23667
 21
113.05333
  0
ARC
  8
Gravur
 62
   255
 39
0.400
  6
CONTINUOUS
 10
10.27833
 20
113.05333
 30
 0
 40
0.95833
 50
-180.00000
 51
0.00000
  0
LINE
  8
Gravur
 62
   255
 39
0.400
  6
CONTINUOUS
 10
12.15700
 20
112.09500
 30
 0
 11
12.15700
 21
114.39500
  0
LINE
  8
Gravur
 62
   255
 39
0.400
  6
CONTINUOUS
 10
12.15700
 20
114.39500
 30
 0
 11
12.15700
 21
113.62833
  0
ARC
  8
Gravur
 62
   255
 39
0.400
  6
CONTINUOUS
 10
12.92367
 20
113.62833
 30
 0
 40
0.76667
 50
0.00000
 51
180.00000
  0
LINE
  8
Gravur
 62
   255
 39
0.400
  6
CONTINUOUS
 10
13.69033
 20
113.62833
 30
 0
 11
13.69033
 21
112.09500
  0
LINE
  8
Gravur
 62
   255
 39
0.400
  6
CONTINUOUS
 10
13.69033
 20
112.09500
 30
 0
 11
13.69033
 21
113.62833
  0
ARC
  8
Gravur
 62
   255
 39
0.400
  6
CONTINUOUS
 10
14.45700
 20
113.62833
 30
 0
 40
0.76667
 50
0.00000
 51
180.00000
  0
LINE
  8
Gravur
 62
   255
 39
0.400
  6
CONTINUOUS
 10
15.22367
 20
113.62833
 30
 0
 11
15.22367
 21
112.09500
  0
LINE
  8
Gravur
 62
   255
 39
0.400
  6
CONTINUOUS
 10
18.13633
 20
114.39500
 30
 0
 11
18.13633
 21
113.05333
  0
ARC
  8
Gravur
 62
   255
 39
0.400
  6
CONTINUOUS
 10
17.13967
 20
113.05333
 30
 0
 40
0.99667
 50
-180.00000
 51
0.00000
  0
LINE
  8
Gravur
 62
   255
 39
0.400
  6
CONTINUOUS
 10
16.14300
 20
113.05333
 30
 0
 11
16.14300
 21
113.43667
  0
ARC
  8
Gravur
 62
   255
 39
0.400
  6
CONTINUOUS
 10
17.13967
 20
113.43667
 30
 0
 40
0.99667
 50
0.00000
 51
180.00000
  0
LINE
  8
Gravur
 62
   255
 39
0.400
  6
CONTINUOUS
 10
18.13633
 20
113.43667
 30
 0
 11
18.13633
 21
112.51667
  0
ARC
  8
Gravur
 62
   255
 39
0.400
  6
CONTINUOUS
 10
18.69211
 20
112.56821
 30
 0
 40
0.55816
 50
185.29897
 51
260.11981
  0
LINE
  8
Gravur
 62
   255
 39
0.400
  6
CONTINUOUS
 10
21.43267
 20
115.54500
 30
 0
 11
21.43267
 21
113.05333
  0
ARC
  8
Gravur
 62
   255
 39
0.400
  6
CONTINUOUS
 10
20.47433
 20
113.01500
 30
 0
 40
0.95910
 50
-177.70939
 51
2.29061
  0
LINE
  8
Gravur
 62
   255
 39
0.400
  6
CONTINUOUS
 10
19.51600
 20
112.97667
 30
 0
 11
19.51600
 21
113.43667
  0
ARC
  8
Gravur
 62
   255
 39
0.400
  6
CONTINUOUS
 10
20.47433
 20
113.43667
 30
 0
 40
0.95833
 50
0.00000
 51
180.00000
  0
LINE
  8
Gravur
 62
   255
 39
0.400
  6
CONTINUOUS
 10
21.43267
 20
113.43667
 30
 0
 11
21.43267
 21
112.09500
  0
ARC
  8
Gravur
 62
   255
 39
0.400
  6
CONTINUOUS
 10
23.22261
 20
113.37034
 30
 0
 40
1.30242
 50
228.05192
 51
293.02344
  0
ARC
  8
Gravur
 62
   255
 39
0.400
  6
CONTINUOUS
 10
23.54027
 20
112.62448
 30
 0
 40
0.49173
 50
292.94873
 51
431.82316
  0
LINE
  8
Gravur
 62
   255
 39
0.400
  6
CONTINUOUS
 10
23.69367
 20
113.09167
 30
 0
 11
22.65867
 21
113.43667
  0
ARC
  8
Gravur
 62
   255
 39
0.400
  6
CONTINUOUS
 10
22.79674
 20
113.85597
 30
 0
 40
0.44145
 50
119.10762
 51
251.77304
  0
ARC
  8
Gravur
 62
   255
 39
0.400
  6
CONTINUOUS
 10
23.25013
 20
113.05945
 30
 0
 40
1.35795
 50
54.50145
 51
119.47297
  0
ARC
  8
Gravur
 62
   7
 39
0.600
  6
CONTINUOUS
 10
11.47288
 20
9.68693
 30
 0
 40
1.13370
 50
36.73449
 51
77.79505
  0
ARC
  8
Gravur
 62
   7
 39
0.600
  6
CONTINUOUS
 10
11.13697
 20
8.15859
 30
 0
 40
2.69851
 50
77.68434
 51
106.40648
  0
ARC
  8
Gravur
 62
   7
 39
0.600
  6
CONTINUOUS
 10
10.74294
 20
9.52469
 30
 0
 40
1.27677
 50
106.75938
 51
144.31597
  0
ARC
  8
Gravur
 62
   7
 39
0.600
  6
CONTINUOUS
 10
10.41601
 20
9.75970
 30
 0
 40
0.87414
 50
144.32844
 51
251.30934
  0
LINE
  8
Gravur
 62
   7
 39
0.600
  6
CONTINUOUS
 10
10.13589
 20
8.93167
 30
 0
 11
11.80811
 21
8.35833
  0
ARC
  8
Gravur
 62
   7
 39
0.600
  6
CONTINUOUS
 10
11.52799
 20
7.53030
 30
 0
 40
0.87414
 50
-35.67156
 51
71.30934
  0
ARC
  8
Gravur
 62
   7
 39
0.600
  6
CONTINUOUS
 10
11.20106
 20
7.76531
 30
 0
 40
1.27677
 50
286.75938
 51
324.31597
  0
ARC
  8
Gravur
 62
   7
 39
0.600
  6
CONTINUOUS
 10
10.80703
 20
9.13141
 30
 0
 40
2.69851
 50
257.68434
 51
286.40648
  0
ARC
  8
Gravur
 62
   7
 39
0.600
  6
CONTINUOUS
 10
10.47112
 20
7.60307
 30
 0
 40
1.13370
 50
216.73449
 51
257.79505
  0
LINE
  8
Gravur
 62
   7
 39
0.600
  6
CONTINUOUS
 10
13.52833
 20
7.92833
 30
 0
 11
15.91722
 21
7.92833
  0
LINE
  8
Gravur
 62
   7
 39
0.600
  6
CONTINUOUS
 10
15.91722
 20
7.92833
 30
 0
 11
15.91722
 21
8.16722
  0
ARC
  8
Gravur
 62
   7
 39
0.600
  6
CONTINUOUS
 10
14.72278
 20
8.16722
 30
 0
 40
1.19444
 50
0.00000
 51
180.00000
  0
LINE
  8
Gravur
 62
   7
 39
0.600
  6
CONTINUOUS
 10
13.52833
 20
8.16722
 30
 0
 11
13.52833
 21
7.68944
  0
ARC
  8
Gravur
 62
   7
 39
0.600
  6
CONTINUOUS
 10
14.78089
 20
7.68844
 30
 0
 40
1.25256
 50
179.95424
 51
322.44599
  0
LINE
  8
Gravur
 62
   7
 39
0.600
  6
CONTINUOUS
 10
19.45222
 20
9.36067
 30
 0
 11
19.45222
 21
7.68844
  0
ARC
  8
Gravur
 62
   7
 39
0.600
  6
CONTINUOUS
 10
18.25778
 20
7.68844
 30
 0
 40
1.19444
 50
-180.00000
 51
0.00000
  0
LINE
  8
Gravur
 62
   7
 39
0.600
  6
CONTINUOUS
 10
17.06333
 20
7.68844
 30
 0
 11
17.06333
 21
8.16622
  0
ARC
  8
Gravur
 62
   7
 39
0.600
  6
CONTINUOUS
 10
18.25778
 20
8.16622
 30
 0
 40
1.19444
 50
0.00000
 51
180.00000
  0
LINE
  8
Gravur
 62
   7
 39
0.600
  6
CONTINUOUS
 10
19.45222
 20
8.16622
 30
 0
 11
19.45222
 21
5.06067
  0
LINE
  8
Gravur
 62
   7
 39
0.600
  6
CONTINUOUS
 10
20.59833
 20
6.49300
 30
 0
 11
20.59833
 21
6.73189
  0
ARC
  8
Gravur
 62
   7
 39
0.200
  6
CONTINUOUS
 10
21.05163
 20
93.42666
 30
 0
 40
0.48898
 50
42.74595
 51
180.39666
  0
LINE
  8
Gravur
 62
   7
 39
0.200
  6
CONTINUOUS
 10
20.56267
 20
93.42328
 30
 0
 11
20.56267
 21
93.22606
  0
ARC
  8
Gravur
 62
   7
 39
0.200
  6
CONTINUOUS
 10
21.05262
 20
93.22646
 30
 0
 40
0.48996
 50
180.04758
 51
328.39092
  0
LINE
  8
Gravur
 62
   7
 39
0.200
  6
CONTINUOUS
 10
21.94367
 20
94.50800
 30
 0
 11
21.94367
 21
92.96967
  0
ARC
  8
Gravur
 62
   7
 39
0.200
  6
CONTINUOUS
 10
22.18420
 20
92.96960
 30
 0
 40
0.24053
 50
179.98432
 51
259.62682
  0
LINE
  8
Gravur
 62
   7
 39
0.200
  6
CONTINUOUS
 10
22.61467
 20
93.22706
 30
 0
 11
22.61467
 21
93.42428
  0
ARC
  8
Gravur
 62
   7
 39
0.200
  6
CONTINUOUS
 10
23.10772
 20
93.42428
 30
 0
 40
0.49306
 50
0.00000
 51
180.00000
  0
LINE
  8
Gravur
 62
   7
 39
0.200
  6
CONTINUOUS
 10
23.60078
 20
93.42428
 30
 0
 11
23.60078
 21
93.22706
  0
ARC
  8
Gravur
 62
   7
 39
0.200
  6
CONTINUOUS
 10
23.10772
 20
93.22706
 30
 0
 40
0.49306
 50
-180.00000
 51
0.00000
  0
ARC
  8
Gravur
 62
   7
 39
0.200
  6
CONTINUOUS
 10
24.56263
 20
93.42766
 30
 0
 40
0.48898
 50
42.74595
 51
180.39666
  0
LINE
  8
Gravur
 62
   7
 39
0.200
  6
CONTINUOUS
 10
24.07367
 20
93.42428
 30
 0
 11
24.07367
 21
93.22706
  0
ARC
  8
Gravur
 62
   7
 39
0.200
  6
CONTINUOUS
 10
24.56362
 20
93.22746
 30
 0
 40
0.48996
 50
180.04758
 51
328.39092
  0
LINE
  8
Gravur
 62
   7
 39
0.200
  6
CONTINUOUS
 10
25.45367
 20
94.50900
 30
 0
 11
25.45367
 21
92.73400
  0
LINE
  8
Gravur
 62
   7
 39
0.200
  6
CONTINUOUS
 10
25.45367
 20
92.73400
 30
 0
 11
25.45367
 21
93.12844
  0
LINE
  8
Gravur
 62
   7
 39
0.200
  6
CONTINUOUS
 10
25.45367
 20
93.12844
 30
 0
 11
26.43978
 21
93.91733
  0
LINE
  8
Gravur
 62
   7
 39
0.200
  6
CONTINUOUS
 10
26.43978
 20
93.91733
 30
 0
 11
25.84811
 21
93.44400
  0
LINE
  8
Gravur
 62
   7
 39
0.200
  6
CONTINUOUS
 10
25.84811
 20
93.44400
 30
 0
 11
26.43978
 21
92.73400
  0
LINE
  8
Gravur
 62
   7
 39
0.200
  6
CONTINUOUS
 10
20.63967
 20
75.47800
 30
 0
 11
20.63967
 21
76.66133
  0
LINE
  8
Gravur
 62
   7
 39
0.200
  6
CONTINUOUS
 10
20.63967
 20
76.66133
 30
 0
 11
20.63967
 21
76.26689
  0
ARC
  8
Gravur
 62
   7
 39
0.200
  6
CONTINUOUS
 10
21.07549
 20
76.26690
 30
 0
 40
0.43583
 50
140.69073
 51
180.00162
  0
ARC
  8
Gravur
 62
   7
 39
0.200
  6
CONTINUOUS
 10
20.95522
 20
76.36465
 30
 0
 40
0.28085
 50
39.42406
 51
140.57594
  0
LINE
  8
Gravur
 62
   7
 39
0.200
  6
CONTINUOUS
 10
21.62667
 20
76.06967
 30
 0
 11
22.61278
 21
76.06967
  0
LINE
  8
Gravur
 62
   7
 39
0.200
  6
CONTINUOUS
 10
22.61278
 20
76.06967
 30
 0
 11
22.61278
 21
76.16828
  0
ARC
  8
Gravur
 62
   7
 39
0.200
  6
CONTINUOUS
 10
22.11972
 20
76.16828
 30
 0
 40
0.49306
 50
0.00000
 51
180.00000
  0
LINE
  8
Gravur
 62
   7
 39
0.200
  6
CONTINUOUS
 10
21.62667
 20
76.16828
 30
 0
 11
21.62667
 21
75.97106
  0
ARC
  8
Gravur
 62
   7
 39
0.200
  6
CONTINUOUS
 10
22.14371
 20
75.97064
 30
 0
 40
0.51704
 50
179.95424
 51
322.44599
  0
ARC
  8
Gravur
 62
   7
 39
0.200
  6
CONTINUOUS
 10
23.53459
 20
76.13416
 30
 0
 40
0.67009
 50
228.05192
 51
293.02344
  0
ARC
  8
Gravur
 62
   7
 39
0.200
  6
CONTINUOUS
 10
23.69802
 20
75.75041
 30
 0
 40
0.25299
 50
292.94873
 51
431.82316
  0
LINE
  8
Gravur
 62
   7
 39
0.200
  6
CONTINUOUS
 10
23.77694
 20
75.99078
 30
 0
 11
23.24444
 21
76.16828
  0
ARC
  8
Gravur
 62
   7
 39
0.200
  6
CONTINUOUS
 10
23.31548
 20
76.38401
 30
 0
 40
0.22712
 50
119.10762
 51
251.77304
  0
ARC
  8
Gravur
 62
   7
 39
0.200
  6
CONTINUOUS
 10
23.54875
 20
75.97420
 30
 0
 40
0.69866
 50
54.50145
 51
119.47297
  0
LINE
  8
Gravur
 62
   7
 39
0.200
  6
CONTINUOUS
 10
24.42767
 20
76.06967
 30
 0
 11
25.41378
 21
76.06967
  0
LINE
  8
Gravur
 62
   7
 39
0.200
  6
CONTINUOUS
 10
25.41378
 20
76.06967
 30
 0
 11
25.41378
 21
76.16828
  0
ARC
  8
Gravur
 62
   7
 39
0.200
  6
CONTINUOUS
 10
24.92072
 20
76.16828
 30
 0
 40
0.49306
 50
0.00000
 51
180.00000
  0
LINE
  8
Gravur
 62
   7
 39
0.200
  6
CONTINUOUS
 10
24.42767
 20
76.16828
 30
 0
 11
24.42767
 21
75.97106
  0
ARC
  8
Gravur
 62
   7
 39
0.200
  6
CONTINUOUS
 10
24.94471
 20
75.97064
 30
 0
 40
0.51704
 50
179.95424
 51
322.44599
  0
LINE
  8
Gravur
 62
   7
 39
0.200
  6
CONTINUOUS
 10
26.06417
 20
77.25300
 30
 0
 11
26.06417
 21
76.66133
  0
LINE
  8
Gravur
 62
   7
 39
0.200
  6
CONTINUOUS
 10
26.06417
 20
76.66133
 30
 0
 11
26.36000
 21
76.66133
  0
LINE
  8
Gravur
 62
   7
 39
0.200
  6
CONTINUOUS
 10
26.36000
 20
76.66133
 30
 0
 11
25.86694
 21
76.66133
  0
LINE
  8
Gravur
 62
   7
 39
0.200
  6
CONTINUOUS
 10
25.86694
 20
76.66133
 30
 0
 11
26.06417
 21
76.66133
  0
LINE
  8
Gravur
 62
   7
 39
0.200
  6
CONTINUOUS
 10
26.06417
 20
76.66133
 30
 0
 11
26.06417
 21
75.71467
  0
ARC
  8
Gravur
 62
   7
 39
0.200
  6
CONTINUOUS
 10
26.30470
 20
75.71460
 30
 0
 40
0.24053
 50
179.98432
 51
259.62682
  0
LINE
  8
Gravur
 62
   7
 39
0.200
  6
CONTINUOUS
 10
17.76667
 20
42.42100
 30
 0
 11
17.76667
 21
40.64600
  0
LINE
  8
Gravur
 62
   7
 39
0.200
  6
CONTINUOUS
 10
17.76667
 20
40.64600
 30
 0
 11
17.76667
 21
41.33628
  0
ARC
  8
Gravur
 62
   7
 39
0.200
  6
CONTINUOUS
 10
18.25972
 20
41.33628
 30
 0
 40
0.49306
 50
0.00000
 51
180.00000
  0
LINE
  8
Gravur
 62
   7
 39
0.200
  6
CONTINUOUS
 10
18.75278
 20
41.33628
 30
 0
 11
18.75278
 21
40.64600
  0
LINE
  8
Gravur
 62
   7
 39
0.200
  6
CONTINUOUS
 10
20.25222
 20
41.82933
 30
 0
 11
20.25222
 21
41.13906
  0
ARC
  8
Gravur
 62
   7
 39
0.200
  6
CONTINUOUS
 10
19.73944
 20
41.13906
 30
 0
 40
0.51278
 50
-180.00000
 51
0.00000
  0
LINE
  8
Gravur
 62
   7
 39
0.200
  6
CONTINUOUS
 10
19.22667
 20
41.13906
 30
 0
 11
19.22667
 21
41.33628
  0
ARC
  8
Gravur
 62
   7
 39
0.200
  6
CONTINUOUS
 10
19.73944
 20
41.33628
 30
 0
 40
0.51278
 50
0.00000
 51
180.00000
  0
LINE
  8
Gravur
 62
   7
 39
0.200
  6
CONTINUOUS
 10
20.25222
 20
41.33628
 30
 0
 11
20.25222
 21
40.86294
  0
ARC
  8
Gravur
 62
   7
 39
0.200
  6
CONTINUOUS
 10
20.53816
 20
40.88947
 30
 0
 40
0.28717
 50
185.29897
 51
260.11981
  0
LINE
  8
Gravur
 62
   7
 39
0.200
  6
CONTINUOUS
 10
20.96267
 20
42.42200
 30
 0
 11
20.96267
 21
40.88367
  0
ARC
  8
Gravur
 62
   7
 39
0.200
  6
CONTINUOUS
 10
21.20320
 20
40.88360
 30
 0
 40
0.24053
 50
179.98432
 51
259.62682
  0
LINE
  8
Gravur
 62
   7
 39
0.200
  6
CONTINUOUS
 10
21.81117
 20
42.42300
 30
 0
 11
21.81117
 21
41.83133
  0
LINE
  8
Gravur
 62
   7
 39
0.200
  6
CONTINUOUS
 10
21.81117
 20
41.83133
 30
 0
 11
22.10700
 21
41.83133
  0
LINE
  8
Gravur
 62
   7
 39
0.200
  6
CONTINUOUS
 10
22.10700
 20
41.83133
 30
 0
 11
21.61394
 21
41.83133
  0
LINE
  8
Gravur
 62
   7
 39
0.200
  6
CONTINUOUS
 10
21.61394
 20
41.83133
 30
 0
 11
21.81117
 21
41.83133
  0
LINE
  8
Gravur
 62
   7
 39
0.200
  6
CONTINUOUS
 10
21.81117
 20
41.83133
 30
 0
 11
21.81117
 21
40.88467
  0
ARC
  8
Gravur
 62
   7
 39
0.200
  6
CONTINUOUS
 10
22.05170
 20
40.88460
 30
 0
 40
0.24053
 50
179.98432
 51
259.62682
  0
LINE
  8
Gravur
 62
   7
 39
0.200
  6
CONTINUOUS
 10
22.58067
 20
40.53067
 30
 0
 11
23.33011
 21
42.52261
  0
LINE
  8
Gravur
 62
   7
 39
0.200
  6
CONTINUOUS
 10
23.80267
 20
40.64900
 30
 0
 11
23.80267
 21
41.83233
  0
LINE
  8
Gravur
 62
   7
 39
0.200
  6
CONTINUOUS
 10
23.80267
 20
41.83233
 30
 0
 11
23.80267
 21
41.43789
  0
ARC
  8
Gravur
 62
   7
 39
0.200
  6
CONTINUOUS
 10
24.23849
 20
41.43790
 30
 0
 40
0.43583
 50
140.69073
 51
180.00162
  0
ARC
  8
Gravur
 62
   7
 39
0.200
  6
CONTINUOUS
 10
24.11822
 20
41.53565
 30
 0
 40
0.28085
 50
39.42406
 51
140.57594
  0
LINE
  8
Gravur
 62
   7
 39
0.200
  6
CONTINUOUS
 10
24.78867
 20
41.83233
 30
 0
 11
24.78867
 21
41.14206
  0
ARC
  8
Gravur
 62
   7
 39
0.200
  6
CONTINUOUS
 10
25.28172
 20
41.14206
 30
 0
 40
0.49306
 50
180.00000
 51
360.00000
  0
LINE
  8
Gravur
 62
   7
 39
0.200
  6
CONTINUOUS
 10
25.77478
 20
41.14206
 30
 0
 11
25.77478
 21
40.64900
  0
LINE
  8
Gravur
 62
   7
 39
0.200
  6
CONTINUOUS
 10
25.77478
 20
40.64900
 30
 0
 11
25.77478
 21
41.83233
  0
LINE
  8
Gravur
 62
   7
 39
0.200
  6
CONTINUOUS
 10
26.24767
 20
40.64900
 30
 0
 11
26.24767
 21
41.83233
  0
LINE
  8
Gravur
 62
   7
 39
0.200
  6
CONTINUOUS
 10
26.24767
 20
41.83233
 30
 0
 11
26.24767
 21
41.33928
  0
ARC
  8
Gravur
 62
   7
 39
0.200
  6
CONTINUOUS
 10
26.74072
 20
41.33928
 30
 0
 40
0.49306
 50
0.00000
 51
180.00000
  0
LINE
  8
Gravur
 62
   7
 39
0.200
  6
CONTINUOUS
 10
27.23378
 20
41.33928
 30
 0
 11
27.23378
 21
40.64900
  0
LINE
  8
Gravur
 62
   7
 39
0.200
  6
CONTINUOUS
 10
21.80467
 20
22.10606
 30
 0
 11
21.80467
 21
22.30328
  0
ARC
  8
Gravur
 62
   7
 39
0.200
  6
CONTINUOUS
 10
22.29772
 20
22.30328
 30
 0
 40
0.49306
 50
0.00000
 51
180.00000
  0
LINE
  8
Gravur
 62
   7
 39
0.200
  6
CONTINUOUS
 10
22.79078
 20
22.30328
 30
 0
 11
22.79078
 21
22.10606
  0
ARC
  8
Gravur
 62
   7
 39
0.200
  6
CONTINUOUS
 10
22.29772
 20
22.10606
 30
 0
 40
0.49306
 50
-180.00000
 51
0.00000
  0
LINE
  8
Gravur
 62
   7
 39
0.200
  6
CONTINUOUS
 10
23.26467
 20
22.79633
 30
 0
 11
23.26467
 21
22.10606
  0
ARC
  8
Gravur
 62
   7
 39
0.200
  6
CONTINUOUS
 10
23.75772
 20
22.10606
 30
 0
 40
0.49306
 50
180.00000
 51
360.00000
  0
LINE
  8
Gravur
 62
   7
 39
0.200
  6
CONTINUOUS
 10
24.25078
 20
22.10606
 30
 0
 11
24.25078
 21
21.61300
  0
LINE
  8
Gravur
 62
   7
 39
0.200
  6
CONTINUOUS
 10
24.25078
 20
21.61300
 30
 0
 11
24.25078
 21
22.79633
  0
LINE
  8
Gravur
 62
   7
 39
0.200
  6
CONTINUOUS
 10
24.90117
 20
23.38800
 30
 0
 11
24.90117
 21
22.79633
  0
LINE
  8
Gravur
 62
   7
 39
0.200
  6
CONTINUOUS
 10
24.90117
 20
22.79633
 30
 0
 11
25.19700
 21
22.79633
  0
LINE
  8
Gravur
 62
   7
 39
0.200
  6
CONTINUOUS
 10
25.19700
 20
22.79633
 30
 0
 11
24.70394
 21
22.79633
  0
LINE
  8
Gravur
 62
   7
 39
0.200
  6
CONTINUOUS
 10
24.70394
 20
22.79633
 30
 0
 11
24.90117
 21
22.79633
  0
LINE
  8
Gravur
 62
   7
 39
0.200
  6
CONTINUOUS
 10
24.90117
 20
22.79633
 30
 0
 11
24.90117
 21
21.84967
  0
ARC
  8
Gravur
 62
   7
 39
0.200
  6
CONTINUOUS
 10
25.14170
 20
21.84960
 30
 0
 40
0.24053
 50
179.98432
 51
259.62682
  0
CIRCLE
  8
Kontur
 62
   7
 39
0.100
  6
CONTINUOUS
 10
7.50000
 20
125.40000
 30
 0
 40
1.60000
  0
CIRCLE
  8
Kontur
 62
   7
 39
0.100
  6
CONTINUOUS
 10
22.64000
 20
3.00000
 30
 0
 40
1.60000
  0
CIRCLE
  8
Kontur
 62
   7
 39
0.100
  6
CONTINUOUS
 10
4.99600
 20
99.62000
 30
 0
 40
2.75000
  0
CIRCLE
  8
Kontur
 62
   7
 39
0.100
  6
CONTINUOUS
 10
10.24600
 20
99.62000
 30
 0
 40
1.50000
  0
CIRCLE
  8
Kontur
 62
   7
 39
0.100
  6
CONTINUOUS
 10
4.99600
 20
89.46000
 30
 0
 40
2.75000
  0
CIRCLE
  8
Kontur
 62
   7
 39
0.100
  6
CONTINUOUS
 10
10.24600
 20
89.46000
 30
 0
 40
1.50000
  0
CIRCLE
  8
Kontur
 62
   7
 39
0.100
  6
CONTINUOUS
 10
4.99600
 20
79.30000
 30
 0
 40
2.75000
  0
CIRCLE
  8
Kontur
 62
   7
 39
0.100
  6
CONTINUOUS
 10
10.24600
 20
79.30000
 30
 0
 40
1.50000
  0
CIRCLE
  8
Kontur
 62
   7
 39
0.100
  6
CONTINUOUS
 10
4.99600
 20
69.14000
 30
 0
 40
2.75000
  0
CIRCLE
  8
Kontur
 62
   7
 39
0.100
  6
CONTINUOUS
 10
10.24600
 20
69.14000
 30
 0
 40
1.50000
  0
CIRCLE
  8
Kontur
 62
   7
 39
0.100
  6
CONTINUOUS
 10
4.99600
 20
58.98000
 30
 0
 40
2.75000
  0
CIRCLE
  8
Kontur
 62
   7
 39
0.100
  6
CONTINUOUS
 10
10.24600
 20
58.98000
 30
 0
 40
1.50000
  0
CIRCLE
  8
Kontur
 62
   7
 39
0.100
  6
CONTINUOUS
 10
4.88000
 20
48.70400
 30
 0
 40
2.75000
  0
CIRCLE
  8
Kontur
 62
   7
 39
0.100
  6
CONTINUOUS
 10
10.13000
 20
48.70400
 30
 0
 40
1.50000
  0
CIRCLE
  8
Kontur
 62
   7
 39
0.100
  6
CONTINUOUS
 10
4.99600
 20
38.66000
 30
 0
 40
2.75000
  0
CIRCLE
  8
Kontur
 62
   7
 39
0.100
  6
CONTINUOUS
 10
10.24600
 20
38.66000
 30
 0
 40
1.50000
  0
CIRCLE
  8
Kontur
 62
   7
 39
0.100
  6
CONTINUOUS
 10
4.99600
 20
28.50000
 30
 0
 40
2.75000
  0
CIRCLE
  8
Kontur
 62
   7
 39
0.100
  6
CONTINUOUS
 10
10.24600
 20
28.50000
 30
 0
 40
1.50000
  0
CIRCLE
  8
Kontur
 62
   7
 39
0.100
  6
CONTINUOUS
 10
22.74900
 20
66.60000
 30
 0
 40
5.00000
  0
CIRCLE
  8
Kontur
 62
   7
 39
0.100
  6
CONTINUOUS
 10
23.49900
 20
99.62000
 30
 0
 40
3.25000
  0
CIRCLE
  8
Kontur
 62
   7
 39
0.100
  6
CONTINUOUS
 10
23.49900
 20
84.38000
 30
 0
 40
3.25000
  0
CIRCLE
  8
Kontur
 62
   7
 39
0.100
  6
CONTINUOUS
 10
22.49900
 20
46.28000
 30
 0
 40
2.75000
  0
CIRCLE
  8
Kontur
 62
   7
 39
0.100
  6
CONTINUOUS
 10
23.49900
 20
28.50400
 30
 0
 40
3.25000
  0
CIRCLE
  8
Kontur
 62
   7
 39
0.100
  6
CONTINUOUS
 10
21.74900
 20
34.24500
 30
 0
 40
1.50000
  0
LINE
  8
Bezugspunkte
 62
   1
 39
0.100
  6
CONTINUOUS
 10
-0.34100
 20
0.00000
 30
 0
 11
0.34100
 21
0.00000
  0
LINE
  8
Bezugspunkte
 62
   1
 39
0.100
  6
CONTINUOUS
 10
0.00000
 20
-0.34100
 30
 0
 11
0.00000
 21
0.34100
  0
LINE
  8
Bezugspunkte
 62
   1
 39
0.100
  6
CONTINUOUS
 10
14.72900
 20
125.39500
 30
 0
 11
15.41100
 21
125.39500
  0
LINE
  8
Bezugspunkte
 62
   1
 39
0.100
  6
CONTINUOUS
 10
15.07000
 20
125.05400
 30
 0
 11
15.07000
 21
125.73600
  0
LINE
  8
Bezugspunkte
 62
   1
 39
0.100
  6
CONTINUOUS
 10
14.72900
 20
3.00000
 30
 0
 11
15.41100
 21
3.00000
  0
LINE
  8
Bezugspunkte
 62
   1
 39
0.100
  6
CONTINUOUS
 10
15.07000
 20
2.65900
 30
 0
 11
15.07000
 21
3.34100
  0
LINE
  8
Bezugspunkte
 62
   1
 39
0.100
  6
CONTINUOUS
 10
7.15900
 20
125.40000
 30
 0
 11
7.84100
 21
125.40000
  0
LINE
  8
Bezugspunkte
 62
   1
 39
0.100
  6
CONTINUOUS
 10
7.50000
 20
125.05900
 30
 0
 11
7.50000
 21
125.74100
  0
LINE
  8
Bezugspunkte
 62
   1
 39
0.100
  6
CONTINUOUS
 10
22.29900
 20
3.00000
 30
 0
 11
22.98100
 21
3.00000
  0
LINE
  8
Bezugspunkte
 62
   1
 39
0.100
  6
CONTINUOUS
 10
22.64000
 20
2.65900
 30
 0
 11
22.64000
 21
3.34100
  0
LINE
  8
Bezugspunkte
 62
   1
 39
0.100
  6
CONTINUOUS
 10
14.72900
 20
118.49500
 30
 0
 11
15.41100
 21
118.49500
  0
LINE
  8
Bezugspunkte
 62
   1
 39
0.100
  6
CONTINUOUS
 10
15.07000
 20
118.15400
 30
 0
 11
15.07000
 21
118.83600
  0
LINE
  8
Bezugspunkte
 62
   1
 39
0.100
  6
CONTINUOUS
 10
14.72900
 20
6.19500
 30
 0
 11
15.41100
 21
6.19500
  0
LINE
  8
Bezugspunkte
 62
   1
 39
0.100
  6
CONTINUOUS
 10
15.07000
 20
5.85400
 30
 0
 11
15.07000
 21
6.53600
  0
LINE
  8
Bezugspunkte
 62
   1
 39
0.100
  6
CONTINUOUS
 10
4.65500
 20
99.62000
 30
 0
 11
5.33700
 21
99.62000
  0
LINE
  8
Bezugspunkte
 62
   1
 39
0.100
  6
CONTINUOUS
 10
4.99600
 20
99.27900
 30
 0
 11
4.99600
 21
99.96100
  0
LINE
  8
Bezugspunkte
 62
   1
 39
0.100
  6
CONTINUOUS
 10
9.90500
 20
99.62000
 30
 0
 11
10.58700
 21
99.62000
  0
LINE
  8
Bezugspunkte
 62
   1
 39
0.100
  6
CONTINUOUS
 10
10.24600
 20
99.27900
 30
 0
 11
10.24600
 21
99.96100
  0
LINE
  8
Bezugspunkte
 62
   1
 39
0.100
  6
CONTINUOUS
 10
4.65500
 20
89.46000
 30
 0
 11
5.33700
 21
89.46000
  0
LINE
  8
Bezugspunkte
 62
   1
 39
0.100
  6
CONTINUOUS
 10
4.99600
 20
89.11900
 30
 0
 11
4.99600
 21
89.80100
  0
LINE
  8
Bezugspunkte
 62
   1
 39
0.100
  6
CONTINUOUS
 10
9.90500
 20
89.46000
 30
 0
 11
10.58700
 21
89.46000
  0
LINE
  8
Bezugspunkte
 62
   1
 39
0.100
  6
CONTINUOUS
 10
10.24600
 20
89.11900
 30
 0
 11
10.24600
 21
89.80100
  0
LINE
  8
Bezugspunkte
 62
   1
 39
0.100
  6
CONTINUOUS
 10
4.65500
 20
79.30000
 30
 0
 11
5.33700
 21
79.30000
  0
LINE
  8
Bezugspunkte
 62
   1
 39
0.100
  6
CONTINUOUS
 10
4.99600
 20
78.95900
 30
 0
 11
4.99600
 21
79.64100
  0
LINE
  8
Bezugspunkte
 62
   1
 39
0.100
  6
CONTINUOUS
 10
9.90500
 20
79.30000
 30
 0
 11
10.58700
 21
79.30000
  0
LINE
  8
Bezugspunkte
 62
   1
 39
0.100
  6
CONTINUOUS
 10
10.24600
 20
78.95900
 30
 0
 11
10.24600
 21
79.64100
  0
LINE
  8
Bezugspunkte
 62
   1
 39
0.100
  6
CONTINUOUS
 10
4.65500
 20
69.14000
 30
 0
 11
5.33700
 21
69.14000
  0
LINE
  8
Bezugspunkte
 62
   1
 39
0.100
  6
CONTINUOUS
 10
4.99600
 20
68.79900
 30
 0
 11
4.99600
 21
69.48100
  0
LINE
  8
Bezugspunkte
 62
   1
 39
0.100
  6
CONTINUOUS
 10
9.90500
 20
69.14000
 30
 0
 11
10.58700
 21
69.14000
  0
LINE
  8
Bezugspunkte
 62
   1
 39
0.100
  6
CONTINUOUS
 10
10.24600
 20
68.79900
 30
 0
 11
10.24600
 21
69.48100
  0
LINE
  8
Bezugspunkte
 62
   1
 39
0.100
  6
CONTINUOUS
 10
4.65500
 20
58.98000
 30
 0
 11
5.33700
 21
58.98000
  0
LINE
  8
Bezugspunkte
 62
   1
 39
0.100
  6
CONTINUOUS
 10
4.99600
 20
58.63900
 30
 0
 11
4.99600
 21
59.32100
  0
LINE
  8
Bezugspunkte
 62
   1
 39
0.100
  6
CONTINUOUS
 10
9.90500
 20
58.98000
 30
 0
 11
10.58700
 21
58.98000
  0
LINE
  8
Bezugspunkte
 62
   1
 39
0.100
  6
CONTINUOUS
 10
10.24600
 20
58.63900
 30
 0
 11
10.24600
 21
59.32100
  0
LINE
  8
Bezugspunkte
 62
   1
 39
0.100
  6
CONTINUOUS
 10
4.53900
 20
48.70400
 30
 0
 11
5.22100
 21
48.70400
  0
LINE
  8
Bezugspunkte
 62
   1
 39
0.100
  6
CONTINUOUS
 10
4.88000
 20
48.36300
 30
 0
 11
4.88000
 21
49.04500
  0
LINE
  8
Bezugspunkte
 62
   1
 39
0.100
  6
CONTINUOUS
 10
9.78900
 20
48.70400
 30
 0
 11
10.47100
 21
48.70400
  0
LINE
  8
Bezugspunkte
 62
   1
 39
0.100
  6
CONTINUOUS
 10
10.13000
 20
48.36300
 30
 0
 11
10.13000
 21
49.04500
  0
LINE
  8
Bezugspunkte
 62
   1
 39
0.100
  6
CONTINUOUS
 10
4.65500
 20
38.66000
 30
 0
 11
5.33700
 21
38.66000
  0
LINE
  8
Bezugspunkte
 62
   1
 39
0.100
  6
CONTINUOUS
 10
4.99600
 20
38.31900
 30
 0
 11
4.99600
 21
39.00100
  0
LINE
  8
Bezugspunkte
 62
   1
 39
0.100
  6
CONTINUOUS
 10
9.90500
 20
38.66000
 30
 0
 11
10.58700
 21
38.66000
  0
LINE
  8
Bezugspunkte
 62
   1
 39
0.100
  6
CONTINUOUS
 10
10.24600
 20
38.31900
 30
 0
 11
10.24600
 21
39.00100
  0
LINE
  8
Bezugspunkte
 62
   1
 39
0.100
  6
CONTINUOUS
 10
4.65500
 20
28.50000
 30
 0
 11
5.33700
 21
28.50000
  0
LINE
  8
Bezugspunkte
 62
   1
 39
0.100
  6
CONTINUOUS
 10
4.99600
 20
28.15900
 30
 0
 11
4.99600
 21
28.84100
  0
LINE
  8
Bezugspunkte
 62
   1
 39
0.100
  6
CONTINUOUS
 10
9.90500
 20
28.50000
 30
 0
 11
10.58700
 21
28.50000
  0
LINE
  8
Bezugspunkte
 62
   1
 39
0.100
  6
CONTINUOUS
 10
10.24600
 20
28.15900
 30
 0
 11
10.24600
 21
28.84100
  0
LINE
  8
Bezugspunkte
 62
   1
 39
0.100
  6
CONTINUOUS
 10
22.40800
 20
66.60000
 30
 0
 11
23.09000
 21
66.60000
  0
LINE
  8
Bezugspunkte
 62
   1
 39
0.100
  6
CONTINUOUS
 10
22.74900
 20
66.25900
 30
 0
 11
22.74900
 21
66.94100
  0
LINE
  8
Bezugspunkte
 62
   1
 39
0.100
  6
CONTINUOUS
 10
23.15800
 20
99.62000
 30
 0
 11
23.84000
 21
99.62000
  0
LINE
  8
Bezugspunkte
 62
   1
 39
0.100
  6
CONTINUOUS
 10
23.49900
 20
99.27900
 30
 0
 11
23.49900
 21
99.96100
  0
LINE
  8
Bezugspunkte
 62
   1
 39
0.100
  6
CONTINUOUS
 10
23.15800
 20
93.62000
 30
 0
 11
23.84000
 21
93.62000
  0
LINE
  8
Bezugspunkte
 62
   1
 39
0.100
  6
CONTINUOUS
 10
23.49900
 20
93.27900
 30
 0
 11
23.49900
 21
93.96100
  0
LINE
  8
Bezugspunkte
 62
   1
 39
0.100
  6
CONTINUOUS
 10
23.15800
 20
84.38000
 30
 0
 11
23.84000
 21
84.38000
  0
LINE
  8
Bezugspunkte
 62
   1
 39
0.100
  6
CONTINUOUS
 10
23.49900
 20
84.03900
 30
 0
 11
23.49900
 21
84.72100
  0
LINE
  8
Bezugspunkte
 62
   1
 39
0.100
  6
CONTINUOUS
 10
23.15800
 20
76.36500
 30
 0
 11
23.84000
 21
76.36500
  0
LINE
  8
Bezugspunkte
 62
   1
 39
0.100
  6
CONTINUOUS
 10
23.49900
 20
76.02400
 30
 0
 11
23.49900
 21
76.70600
  0
LINE
  8
Bezugspunkte
 62
   1
 39
0.100
  6
CONTINUOUS
 10
22.15800
 20
46.28000
 30
 0
 11
22.84000
 21
46.28000
  0
LINE
  8
Bezugspunkte
 62
   1
 39
0.100
  6
CONTINUOUS
 10
22.49900
 20
45.93900
 30
 0
 11
22.49900
 21
46.62100
  0
LINE
  8
Bezugspunkte
 62
   1
 39
0.100
  6
CONTINUOUS
 10
22.15800
 20
41.53300
 30
 0
 11
22.84000
 21
41.53300
  0
LINE
  8
Bezugspunkte
 62
   1
 39
0.100
  6
CONTINUOUS
 10
22.49900
 20
41.19200
 30
 0
 11
22.49900
 21
41.87400
  0
LINE
  8
Bezugspunkte
 62
   1
 39
0.100
  6
CONTINUOUS
 10
23.15800
 20
28.50400
 30
 0
 11
23.84000
 21
28.50400
  0
LINE
  8
Bezugspunkte
 62
   1
 39
0.100
  6
CONTINUOUS
 10
23.49900
 20
28.16300
 30
 0
 11
23.49900
 21
28.84500
  0
LINE
  8
Bezugspunkte
 62
   1
 39
0.100
  6
CONTINUOUS
 10
21.40800
 20
34.24500
 30
 0
 11
22.09000
 21
34.24500
  0
LINE
  8
Bezugspunkte
 62
   1
 39
0.100
  6
CONTINUOUS
 10
21.74900
 20
33.90400
 30
 0
 11
21.74900
 21
34.58600
  0
LINE
  8
Bezugspunkte
 62
   1
 39
0.100
  6
CONTINUOUS
 10
23.15900
 20
22.50000
 30
 0
 11
23.84100
 21
22.50000
  0
LINE
  8
Bezugspunkte
 62
   1
 39
0.100
  6
CONTINUOUS
 10
23.50000
 20
22.15900
 30
 0
 11
23.50000
 21
22.84100
  0
ENDSEC
  0
EOF
